<svg width="320" height="320" viewBox="0 0 320 320" fill="none" xmlns="http://www.w3.org/2000/svg">
<path fill-rule="evenodd" clip-rule="evenodd" d="M298.217 132.458L168.45 41.7913C163.068 38.2496 156.267 38.2496 151.167 41.7913L21.4 132.458C19.4379 133.787 18.3598 135.823 18.1502 137.935L18 137.841V285.316C18 296.083 26.7833 304.866 37.55 304.866H281.783C292.55 304.866 300.908 296.508 301.333 285.741V140.294C301.944 137.439 300.91 134.283 298.217 132.458Z" fill="#8533AD"/>
<path fill-rule="evenodd" clip-rule="evenodd" d="M298.217 132.458L168.45 41.7913C163.068 38.2496 156.267 38.2496 151.167 41.7913L21.4 132.458C19.4379 133.787 18.3598 135.823 18.1501 137.935L119.276 200.476L46.9 285.175L151.025 190.4C155.7 186.008 163.068 186.008 168.45 190.4L272.575 285.175L199.913 200.469L301.333 138.125V140.294C301.944 137.439 300.91 134.283 298.217 132.458Z" fill="#6A298A"/>
<path fill-rule="evenodd" clip-rule="evenodd" d="M131.617 208.108L151.025 190.4C155.7 186.008 163.067 186.008 168.45 190.4L187.717 207.967L268.325 158.416V43.3502C268.325 38.3918 264.359 34.0002 258.974 34.0002H60.3588C55.4005 34.0002 51.0088 37.9668 51.0088 43.3502V158.256L131.617 208.108Z" fill="#DDDDDD"/>
<path fill-rule="evenodd" clip-rule="evenodd" d="M149.838 5.7495L75.5653 129.704C70.7853 137.569 76.5603 147.624 85.7203 147.624H234.266C243.526 147.624 249.2 137.569 244.421 129.704L170.149 5.7495C165.568 -1.9165 154.417 -1.9165 149.838 5.7495Z" fill="#EF6497"/>
<path fill-rule="evenodd" clip-rule="evenodd" d="M171.332 51.5208C172.082 46.6446 167.956 42.893 163.829 42.893H154.825C151.073 42.893 147.322 46.6446 147.322 51.5208L149.947 90.9118C150.323 95.414 153.324 98.415 157.45 98.415H161.577C165.704 98.415 168.705 95.7893 169.08 90.9118L171.332 51.5208ZM159.327 105.918C152.574 105.918 147.697 111.171 147.697 117.924C147.697 124.676 152.574 129.552 159.327 129.552C166.079 129.552 170.957 124.676 170.957 117.924C170.957 111.171 166.079 105.918 159.327 105.918Z" fill="white"/>
</svg>
