<?xml version="1.0" encoding="UTF-8"?>
<svg id="Layer_1" xmlns="http://www.w3.org/2000/svg" version="1.1" viewBox="0 0 320 320">
  <!-- Generator: Adobe Illustrator 30.0.0, SVG Export Plug-In . SVG Version: 2.1.1 Build 123)  -->
  <defs>
    <style>
      .st0 {
        fill: #f06497;
      }

      .st1 {
        fill: #8d4aff;
      }

      .st1, .st2, .st3 {
        fill-rule: evenodd;
      }

      .st4 {
        fill: #fff;
      }

      .st2 {
        fill: #14001f;
        isolation: isolate;
        opacity: .2;
      }

      .st3 {
        fill: #ddd;
      }
    </style>
  </defs>
  <g>
    <path class="st1" d="M162.690155,28.3735008c0-14.5511675-11.8228149-26.3739929-26.4750366-26.3739929H36.4789734c-1.2126007,0-2.5262451.1010497-3.7388458.3031495h-6.2650871c-14.5511675.0000007-26.373996,11.8228242-26.373996,26.4750431l.1010521,262.3252354c0,14.5511475,11.8228249,26.3739929,26.4750428,26.3739929h109.8411102c14.5511627,0,26.3739929-12.1259766,26.3739929-26.7781982l-.2021027-262.3252258.0000153-.0000038Z"/>
    <path class="st3" d="M134.2951508,13.721283h-9.8018265c-1.616806,0-2.8293991,1.3136463-2.8293991,2.8293934v4.0419903c0,3.1325436-2.5262451,5.6587887-5.6587906,5.6587887h-59.5183144c-3.1325417,0-5.6587868-2.5262451-5.6587868-5.6587887v-4.0419922c0-1.6167965-1.3136444-2.8293943-2.8293877-2.8293943h-9.8018265c-10.8123245,0-19.5026073,8.7913313-19.5026073,19.5026045l.1010475,252.6244736c0,10.8123474,8.7913303,19.502594,19.5026073,19.502594h96.1993866c10.8123169,0,19.5026093-8.7913513,19.5026093-19.502594l-.101059-252.6244507c-.1010437-10.8123398-8.8923645-19.5026207-19.603653-19.5026245Z"/>
    <path class="st2" d="M10.0039291,28.3735008l.1010485,262.3252296c0,14.5511475,11.8228254,26.3739929,26.4750433,26.3739929l-10.0039291.3031311c-14.5511694,0-26.373991-11.8228455-26.4750423-26.3739929L0,28.6766624C0,14.0244455,11.8228245,2.2016203,26.4750423,2.2016203h6.2650852c-12.8333225,1.8188961-22.7362003,12.8333223-22.7362003,26.1718919,0,0,0-.0000114.0000019-.0000114ZM101.0497818,16.3485775h-2.0209961c-.4041901,0-.7073441.3031483-.7073441.7073498s.303154.7073498.7073441.7073498h2.0209961c.4041901,0,.7073441-.3031483.7073441-.7073498s-.303154-.7073498-.7073441-.7073498ZM94.2794495,16.3485775h-16.8753128c-.4041977,0-.7073441.3031483-.7073441.7073498,0,.4041996.303154.7073498.7073441.7073498h16.8753128c.4041901,0,.7073441-.3031483.7073441-.7073498.101059-.4042015-.303154-.7073498-.7073441-.7073498Z"/>
  </g>
  <path class="st0" d="M213.8999939,254.3000031h-108.1999969c-20.8000031,0-37.9000015-17-37.9000015-37.9000092v-108.1999969c0-20.8000031,17-37.9000015,37.9000015-37.9000015h108.1999969c20.8000031,0,37.8999939,17,37.8999939,37.9000015v108.1999969c.0000153,20.8000031-17.0999908,37.9000092-37.8999939,37.9000092Z"/>
  <path class="st4" d="M176.8999939,172.1000061c.6000061-.5,1.3999939-.8999939,2.1999969-1.1000061,2.8999939-.6999969,11.8000031-2.8999939,14.8000031-3.6000061,3.6000061-.8000031,8.5-4.1999969,6.3999939-13s-10.8000031-7.1000061-10.8000031-7.1000061c0,0-14.3999939,3.3999939-17.3999939,4.1000061-3,.6999969-3.6999969-1.8000031-3.6999969-1.8000031,0,0-.8999939-2.6000061,1.8999939-4,5-2.6000061,11.5-9.3999939,11.5-19.5999985s-9.3000031-20.0999985-22.1000061-20.0999985-22.6999969,10.6999969-21.5,22.8000031,10.3999939,16.5,11.8000031,17.1000061c1.5.6000061,2.1000061,1.8000031,1.6000061,4-.1999969,1.1000061-1.1999969,1.6000061-2,1.8000031s-1.6000061.1000061-2.3999939-.1000061c-1.8000031-.5-7.1000061-1.8000031-15.3000031-3.6999969-10.3000031-2.5-11.8000031,5.6000061-11.8000031,5.6000061l-.9000015,3.5c-1.3000031,5.3000031,2.8000031,8.6000061,4.6999969,9.8000031.5.3000031,1,.5,1.5999985.6999969,2.6999969.6999969,12.1999969,3,15,3.6999969,3.1999969.8000031,4.6999969,2.3999939,5,5.8000031.3000031,3.3999939-1.6999969,5.8999939-1.6999969,5.8999939-2.1999969,2.6999969-14,17-16,19.1999969-2,2.3000031-2.5999985,3.6000061-2.8000031,6.1999969-.1999969,2.6000061,1,4.1999969,1.8000031,5.3000031.6999969,1.1000061,2.8000031,2.8000031,4.5,4s4.3000031,1.6999969,6.6000061,1.3999939c2.3999939-.3000031,4.5-2,5.3000031-3,.8000031-.8999939,12.1999969-15,13-16s1.5-2.1999969,3.8000031-2.3999939c1.8999939-.1000061,3,1.3000031,3.3000031,1.8999939.1000061.1999969.1999969.3000031.3999939.5,1.3999939,1.6999969,8.5,10.3999939,12.1999969,14.8000031,4.1999969,4.8999939,8.1999969,6.1000061,15.1999969.8000031s2.1000061-11.1999969,2.1000061-11.1999969c0,0-14.1999969-16.8000031-16.5-20.1000061s-2.3000031-5.1000061-2.1999969-7.3000031c.1000061-2.3999939,1.3999939-3.8999939,2.3999939-4.7999878Z"/>
</svg>